<?xml version="1.0" encoding="UTF-8" standalone="no"?>
<svg width="1024px" height="1024px" viewBox="0 0 1024 1024" version="1.1" xmlns="http://www.w3.org/2000/svg" xmlns:xlink="http://www.w3.org/1999/xlink" xmlns:sketch="http://www.bohemiancoding.com/sketch/ns">
    <!-- Generator: Sketch 3.4.4 (17249) - http://www.bohemiancoding.com/sketch -->
    <title>hipchatfordesktop</title>
    <desc>Created with Sketch.</desc>
    <defs></defs>
    <g id="Page-1" stroke="none" stroke-width="1" fill="none" fill-rule="evenodd" sketch:type="MSPage">
        <g id="hipchat_rgb_white" sketch:type="MSLayerGroup">
            <g id="Group" transform="translate(43.885714, 73.142857)" sketch:type="MSShapeGroup">
                <g>
                    <path d="M849.982061,818.774442 C817.072208,800.04987 785.864589,768.27484 771.679307,724.584173 C768.842251,716.073004 771.111896,709.264069 777.920831,704.157368 C873.245922,630.393905 933.391515,523.153177 933.391515,403.996814 C933.391515,181.571602 724.584173,1.70223377 466.979463,1.70223377 C208.807342,1.70223377 0,182.139013 0,404.564225 C0,626.989437 208.807342,807.426216 466.412052,807.426216 C499.889316,807.426216 532.799169,804.58916 564.574199,798.347636 C572.517957,796.645403 578.759481,798.915048 583.866182,801.752104 C647.983654,840.903481 742.741333,873.813333 826.150788,873.813333 C852.819117,873.813333 863.599931,856.790996 863.599931,841.470892 C863.599931,831.257489 857.925818,823.313732 849.982061,818.774442 L849.982061,818.774442 Z" id="Path" fill="#FFFFFF"></path>
                    <path d="M725.151584,779.623065 C726.853818,781.325299 727.421229,783.027532 727.421229,785.297177 C727.421229,788.134234 724.584173,789.836468 721.747117,789.836468 C698.483255,789.836468 626.422026,751.252502 588.405472,718.910061 C583.298771,714.370771 575.922424,712.668537 565.709022,714.938182 C533.933991,721.747117 501.024139,725.718996 466.412052,725.718996 C251.930597,725.718996 77.735342,582.163948 77.735342,405.131636 C77.735342,228.099325 251.363186,84.5442771 466.412052,84.5442771 C680.893506,84.5442771 854.521351,228.099325 854.521351,405.131636 C854.521351,510.67013 792.673524,604.292987 697.348433,662.736346 C691.106909,666.708225 684.297974,674.084571 684.297974,683.163152 C684.297974,702.455134 701.887723,748.982857 725.151584,779.623065 L725.151584,779.623065 Z" id="Shape" fill="#205081"></path>
                    <path d="M721.747117,494.215203 C721.747117,484.569212 713.803359,475.490632 703.022545,475.490632 C698.483255,475.490632 694.511377,477.192866 690.539498,480.029922 C643.444364,522.018355 563.439377,559.467498 466.979463,560.034909 L466.412052,560.034909 C369.952139,560.034909 292.216797,520.883532 242.852017,480.029922 C239.44755,477.192866 233.773437,475.490632 230.36897,475.490632 C219.020745,475.490632 212.21181,485.136623 212.21181,495.917437 C212.21181,504.428606 217.885922,511.237541 222.992623,518.613887 C250.795775,560.034909 336.474874,630.961316 466.412052,630.961316 L468.681697,630.961316 C598.051463,630.961316 684.297974,560.034909 712.101126,518.613887 C715.505593,511.804952 721.747117,502.726372 721.747117,494.215203 L721.747117,494.215203 Z" id="Shape" fill="#FFFFFF"></path>
                </g>
            </g>
            <rect id="Rectangle-1" stroke="#979797" opacity="0" fill="#D8D8D8" sketch:type="MSShapeGroup" x="0" y="0" width="1024" height="1024"></rect>
        </g>
    </g>
</svg>